FILE "Lunar - Silver Star Story Complete (USA) - [Undub and Revert USA Changes v1.0 by RyleFury] (Disc 2).bin" BINARY
  TRACK 01 MODE2/2352
    INDEX 01 00:00:00
  TRACK 02 AUDIO
    PREGAP 00:02:00
    INDEX 00 63:31:74
    INDEX 01 63:32:00
  TRACK 03 AUDIO
    INDEX 00 66:00:47
    INDEX 01 66:02:47
